PathFileType	4	(X/Y/Z)	S240501-1155_P07_T01_0-394.trc
DataRate	CameraRate	NumFrames	NumMarkers	Units	OrigDataRate	OrigDataStartFrame	OrigNumFrames
60	60	5	13	m	60	49	394
Frame#	Time	Nose			LEye			LEar			LShoulder			LElbow			LWrist			LHip			REye			REar			RShoulder			RElbow			RWrist			RHip		
		X1	Y1	Z1	X2	Y2	Z2	X3	Y3	Z3	X4	Y4	Z4	X5	Y5	Z5	X6	Y6	Z6	X7	Y7	Z7	X8	Y8	Z8	X9	Y9	Z9	X10	Y10	Z10	X11	Y11	Z11	X12	Y12	Z12	X13	Y13	Z13
50	0.8333333333333334	-0.04697171532004659	1.660448530803504	0.15491149545294508	-0.07242629570807738	1.6244905391429998	0.17831862316080857	-0.04622694474835908	1.575048997156738	0.272496494410143	0.1042422090606491	1.5027313606755142	0.27861473463539893	0.3049942099503091	1.4676671980297786	0.14441336448083553	0.12670653719742306	1.597831288461377	0.10337578996274412	0.5224564460509459	1.5915005675968257	0.2252401054059164	-0.08117679296427112	1.6896082557195526	0.1750599458738627	-0.06657966969643668	1.7451903503391242	0.2744413679064585	0.10260003994636298	1.8321141972180541	0.31631363197568674	0.33027737254973843	1.926553608585965	0.25710690675371933	0.32165442788521015	1.9015045548667602	0.04288044638181997	0.5059351338691979	1.8199769573729703	0.22467751847716233
51	0.85	-0.04720888326097685	1.6602040108014624	0.1547539480865235	-0.07268682778487108	1.6242786253630903	0.1781432010884978	-0.04655182349268854	1.5751905170797933	0.2725485087341032	0.10585694842679312	1.5047103125504646	0.282569294692002	0.3065285985909372	1.465005795354182	0.14534662044311528	0.12365967679875198	1.5972201281871767	0.10393750364621396	0.528134393060906	1.5927973553572567	0.22422775612877316	-0.08002217955870151	1.6895591432433341	0.17460330219563938	-0.066966039279569	1.7452108278314546	0.2740100119413474	0.10215067715481847	1.8323308151162983	0.31635288789448973	0.3266165740198883	1.9269697024817327	0.2570096527059771	0.3228914008009324	1.9012547599880538	0.042448094093674865	0.539582856089695	1.8162458941131403	0.1875751246980529
52	0.8666666666666667	-0.04837423825049955	1.6612299050439412	0.1537280966921285	-0.07222881478888056	1.622668173006125	0.17733456481037796	-0.0459184359820042	1.5734466783977172	0.274011218269718	0.10477522339358421	1.503007269252761	0.2834360645313246	0.301968094782323	1.4672778988311987	0.1417458108184076	0.12128939607055891	1.5953924469710337	0.10758538441211256	0.5234967199088193	1.5865491301504022	0.22275754009534593	-0.07905295396108956	1.6851648855702304	0.17903686726895973	-0.06626125836102638	1.743073034644068	0.2740936139689705	0.10379606988076522	1.8307692500935189	0.31327156712377285	0.33030176581816956	1.9278093448825802	0.2552408177968078	0.32154135923760685	1.9051321679298412	0.042903341288854764	0.5186517024323856	1.8172035439981074	0.21508950302677096
53	0.8833333333333333	-0.04848697092185367	1.6609586381983952	0.15694793535857587	-0.07117454730585729	1.6229965402596862	0.17689434909297266	-0.046207634039747425	1.5734801355848136	0.27393430333570623	0.10458329130809761	1.5030020077717388	0.28352158970251895	0.29919912131065435	1.4687328932775656	0.1364302870082842	0.1198247240518725	1.5956322207222031	0.10757953479032532	0.5180574929094969	1.5851493623392525	0.22329154765755244	-0.07934987034613694	1.6853853057270076	0.17886728275727345	-0.06527523277369397	1.7433607699716551	0.2736755022323036	0.10239092335975934	1.8311116544140786	0.31495167176665095	0.32996578499400925	1.9265679048053337	0.25512001587999494	0.3230857320158146	1.9042440278693014	0.0414571563315172	0.5208041982810391	1.8144393836569328	0.21900586727009785
54	0.9	-0.0483593012476234	1.6611443479901706	0.15659641646504596	-0.07238657753936747	1.6230466937535393	0.1769133944815237	-0.04806977544517427	1.5736995515886567	0.2733005069326259	0.10484546356097908	1.5026324521030439	0.2835000516903936	0.2993038999062447	1.4689694141163203	0.1361244984784829	0.11902215372093741	1.5950693501605526	0.10687649504283404	0.5405961614420366	1.5949369478008681	0.21791512098542434	-0.0792211247364686	1.6855824742019347	0.17851634521457926	-0.06796465782731873	1.7428664094132769	0.27410709814993806	0.10228070902218908	1.8312124590010013	0.31499139317763836	0.3298917809416437	1.9265741768915066	0.25441043025455606	0.3215851638426266	1.9030662062511203	0.04087837346509241	0.5201210768921192	1.8129428658941396	0.2239201158532063
